<?xml version="1.0" encoding="UTF-8" standalone="no"?>
<svg
   xmlns:dc="http://purl.org/dc/elements/1.1/"
   xmlns:cc="http://creativecommons.org/ns#"
   xmlns:rdf="http://www.w3.org/1999/02/22-rdf-syntax-ns#"
   xmlns:svg="http://www.w3.org/2000/svg"
   xmlns="http://www.w3.org/2000/svg"
   xmlns:sodipodi="http://sodipodi.sourceforge.net/DTD/sodipodi-0.dtd"
   xmlns:inkscape="http://www.inkscape.org/namespaces/inkscape"
   version="1.1"
   x="0px"
   y="0px"
   viewBox="0 0 50 50"
   enable-background="new 0 0 1000 1000"
   xml:space="preserve"
   id="svg4491"
   sodipodi:docname="preview.svg"
   width="50"
   height="50"
   inkscape:version="0.92.3 (2405546, 2018-03-11)"><defs
     id="defs4495" /><sodipodi:namedview
     pagecolor="#ffffff"
     bordercolor="#666666"
     borderopacity="1"
     objecttolerance="10"
     gridtolerance="10"
     guidetolerance="10"
     inkscape:pageopacity="0"
     inkscape:pageshadow="2"
     inkscape:window-width="1920"
     inkscape:window-height="1001"
     id="namedview4493"
     showgrid="false"
     inkscape:zoom="13.081301"
     inkscape:cx="17.550861"
     inkscape:cy="22.67283"
     inkscape:window-x="1911"
     inkscape:window-y="416"
     inkscape:window-maximized="1"
     inkscape:current-layer="svg4491"
     inkscape:pagecheckerboard="true" /><metadata
     id="metadata4485"> <rdf:RDF><cc:Work
     rdf:about=""><dc:format>image/svg+xml</dc:format><dc:type
       rdf:resource="http://purl.org/dc/dcmitype/StillImage" /><dc:title></dc:title></cc:Work></rdf:RDF></metadata><circle
     style="opacity:1;fill:none;fill-opacity:1;stroke:#fffffe;stroke-width:4.61388445;stroke-linecap:round;stroke-linejoin:round;stroke-miterlimit:4;stroke-dasharray:none;stroke-opacity:1"
     id="path3997-5"
     cx="25"
     cy="25"
     r="0" /><circle
     style="opacity:1;fill:none;fill-opacity:1;stroke:#fffffe;stroke-width:4.61388445;stroke-linecap:round;stroke-linejoin:round;stroke-miterlimit:4;stroke-dasharray:none;stroke-opacity:1"
     id="path3997-8"
     cx="25"
     cy="25"
     r="0" /><circle
     style="opacity:1;fill:none;fill-opacity:1;stroke:#fffffe;stroke-width:4.61388445;stroke-linecap:round;stroke-linejoin:round;stroke-miterlimit:4;stroke-dasharray:none;stroke-opacity:1"
     id="path3997-0"
     cx="25"
     cy="25"
     r="0" /><rect
     style="opacity:1;fill:none;fill-opacity:1;stroke:#fffffe;stroke-width:4.22457647;stroke-linecap:square;stroke-linejoin:round;stroke-miterlimit:4;stroke-dasharray:none;stroke-opacity:1"
     id="rect3858"
     width="45.775425"
     height="45.775425"
     x="2.1122882"
     y="2.1122868" /><style
     id="style3860"
     type="text/css">
	.st0{fill:#333333;}
</style><g
     id="XMLID_2_"
     transform="translate(-22.937307,-27.204764)"
     style="fill:#ffffff;fill-opacity:1">
	<path
   d="m 52.2,53.9 c 0.7,0.6 1.7,1.2 2.8,1.9 1.3,-0.2 2.6,-0.2 3.9,-0.2 3.3,0 5.3,0.5 5.9,1.6 0.4,0.5 0.4,1.1 0.1,1.7 V 59 h -0.1 v 0 c -0.1,0.8 -0.9,1.3 -2.4,1.3 -1.1,0 -2.4,-0.2 -3.9,-0.7 -1.5,-0.4 -2.9,-1 -4.4,-1.8 -4.9,0.5 -9.3,1.5 -13.1,2.8 -3.4,5.8 -6.1,8.8 -8.1,8.8 -0.3,0 -0.6,-0.1 -0.9,-0.2 L 31.2,68.8 31,68.6 c -0.2,-0.2 -0.3,-0.6 -0.2,-1.2 0.2,-0.9 0.8,-1.9 1.9,-3.1 1,-1.1 2.5,-2.2 4.4,-3.2 0.3,-0.2 0.6,-0.1 0.8,0.2 l 0.1,0.1 c 1.2,-1.9 2.4,-4.1 3.6,-6.6 1.5,-3 2.7,-6 3.5,-8.8 -0.5,-1.8 -0.9,-3.6 -1,-5.3 C 44,39 44,37.5 44.3,36.4 c 2.720911,-3.571145 3.5,0.57041 3.5,3.1 0,2.7 -0.2,4.9 -0.5,6.4 1.3,3.7 2.9,6.3 4.9,8 z M 32.9,67.6 c 1.2,-0.5 2.7,-2.3 4.6,-5.3 -1.1,0.9 -2.1,1.8 -2.9,2.8 -0.8,1 -1.4,1.9 -1.7,2.5 z M 46.2,41.2 c 0,-0.2 0.1,-0.6 0.2,-1.5 0.882525,-3.931558 -1.026282,-4.243026 -0.2,1.5 z m -4.1,17.7 c 3,-1.2 6.2,-2.1 9.5,-2.7 0,0 -0.2,-0.1 -0.4,-0.3 -0.2,-0.2 -0.4,-0.3 -0.5,-0.5 -1.7,-1.5 -3.1,-3.5 -4.3,-5.9 -0.6,1.9 -1.5,4.1 -2.8,6.6 -0.7,1.3 -1.2,2.2 -1.5,2.8 z m 21.6,-0.5 c -0.5,-0.5 -2.1,-0.8 -4.7,-0.8 1.7,0.6 3.1,0.9 4.2,0.9 h 0.6 z"
   class="st0"
   id="XMLID_12_"
   inkscape:connector-curvature="0"
   style="fill:#ffffff;fill-opacity:1"
   sodipodi:nodetypes="ccscccccscccsccscccccccsccccccsccccccsccccscscs" />
</g></svg>