<?xml version="1.0" encoding="UTF-8" standalone="no"?>
<!-- Created with Inkscape (http://www.inkscape.org/) -->

<svg
   xmlns:dc="http://purl.org/dc/elements/1.1/"
   xmlns:cc="http://creativecommons.org/ns#"
   xmlns:rdf="http://www.w3.org/1999/02/22-rdf-syntax-ns#"
   xmlns:svg="http://www.w3.org/2000/svg"
   xmlns="http://www.w3.org/2000/svg"
   xmlns:sodipodi="http://sodipodi.sourceforge.net/DTD/sodipodi-0.dtd"
   xmlns:inkscape="http://www.inkscape.org/namespaces/inkscape"
   width="50"
   height="50"
   viewBox="0 0 13.229167 13.229167"
   version="1.1"
   id="svg8"
   inkscape:version="0.92.1 r15371"
   sodipodi:docname="preview.svg">
  <defs
     id="defs2" />
  <sodipodi:namedview
     id="base"
     pagecolor="#ffffff"
     bordercolor="#666666"
     borderopacity="1.0"
     inkscape:pageopacity="0.0"
     inkscape:pageshadow="2"
     inkscape:zoom="4.8305814"
     inkscape:cx="43.022755"
     inkscape:cy="-25.488629"
     inkscape:document-units="px"
     inkscape:current-layer="layer1"
     showgrid="false"
     units="px"
     inkscape:window-width="1920"
     inkscape:window-height="1005"
     inkscape:window-x="1911"
     inkscape:window-y="-9"
     inkscape:window-maximized="1"
     inkscape:pagecheckerboard="true" />
  <metadata
     id="metadata5">
    <rdf:RDF>
      <cc:Work
         rdf:about="">
        <dc:format>image/svg+xml</dc:format>
        <dc:type
           rdf:resource="http://purl.org/dc/dcmitype/StillImage" />
        <dc:title></dc:title>
      </cc:Work>
    </rdf:RDF>
  </metadata>
  <g
     inkscape:label="Ebene 1"
     inkscape:groupmode="layer"
     id="layer1"
     transform="translate(0,-283.77082)">
    <rect
       style="opacity:0;fill:none;fill-opacity:1;stroke:#ffffff;stroke-width:5.29166698;stroke-linecap:butt;stroke-linejoin:miter;stroke-miterlimit:4;stroke-dasharray:none;stroke-opacity:1"
       id="rect4567"
       width="10.883144"
       height="11.425365"
       x="0.96825135"
       y="284.41272" />
    <g
       id="g4677"
       transform="matrix(0.01349777,0,0,0.01349777,-0.13497639,283.63652)"
       style="fill:#ffffff;fill-opacity:1">
      <path
         id="path4675"
         d="m 391.2,649.9 245,-122.5 c 22.5,-11.3 22.5,-43.5 0,-54.8 l -245,-122.5 c -20.4,-10.2 -44.3,4.6 -44.3,27.4 v 245 c 0,22.8 23.9,37.5 44.3,27.4 z M 898.4,132.5 H 101.6 C 51.2,132.5 10,174 10,224.8 v 550.3 c 0,51 40.9,92.4 91.6,92.4 h 796.9 c 50.4,0 91.6,-41.5 91.6,-92.4 V 224.8 c -0.1,-51 -41,-92.3 -91.7,-92.3 z M 193.8,775.3 c 0,17.1 -13.1,30.9 -30.9,30.9 h -60.6 c -17.1,0 -30.9,-13.1 -30.9,-30.9 v -60.6 c 0,-17.1 13.1,-30.9 30.9,-30.9 H 163 c 17,0 30.9,13.1 30.9,30.9 v 60.6 z m 0,-245 c 0,17.1 -13.1,30.9 -30.9,30.9 h -60.6 c -17.1,0 -30.9,-13.1 -30.9,-30.9 v -60.6 c 0,-17.1 13.1,-30.9 30.9,-30.9 H 163 c 17,0 30.9,13.1 30.9,30.9 v 60.6 z m 0,-245 c 0,17.1 -13.1,30.9 -30.9,30.9 h -60.6 c -17.1,0 -30.9,-13.1 -30.9,-30.9 v -60.6 c 0,-17.1 13.1,-30.9 30.9,-30.9 H 163 c 17,0 30.9,13.1 30.9,30.9 v 60.6 z M 745,806.3 H 255 V 193.7 h 490 z m 183.8,-31 c 0,17.1 -13.1,30.9 -30.9,30.9 h -60.7 c -17,0 -30.9,-13.1 -30.9,-30.9 v -60.6 c 0,-17.1 13.1,-30.9 30.9,-30.9 h 60.7 c 17,0 30.9,13.1 30.9,30.9 z m 0,-245 c 0,17.1 -13.1,30.9 -30.9,30.9 h -60.7 c -17,0 -30.9,-13.1 -30.9,-30.9 v -60.6 c 0,-17.1 13.1,-30.9 30.9,-30.9 h 60.7 c 17,0 30.9,13.1 30.9,30.9 z m 0,-245 c 0,17.1 -13.1,30.9 -30.9,30.9 h -60.7 c -17,0 -30.9,-13.1 -30.9,-30.9 v -60.6 c 0,-17.1 13.1,-30.9 30.9,-30.9 h 60.7 c 17,0 30.9,13.1 30.9,30.9 z"
         inkscape:connector-curvature="0"
         style="fill:#ffffff;fill-opacity:1" />
    </g>
  </g>
</svg>
